<?xml version="1.0" standalone="no"?>
<!DOCTYPE svg PUBLIC "-//W3C//DTD SVG 20010904//EN"
 "http://www.w3.org/TR/2001/REC-SVG-20010904/DTD/svg10.dtd">
<svg version="1.0" xmlns="http://www.w3.org/2000/svg"
 width="700.000000pt" height="700.000000pt" viewBox="0 0 700.000000 700.000000"
 preserveAspectRatio="xMidYMid meet">
<metadata>
Created by potrace 1.14, written by Peter Selinger 2001-2017
</metadata>
<g transform="translate(0.000000,700.000000) scale(0.100000,-0.100000)"
fill="#000000" stroke="none">
<path d="M3959 6838 c-51 -90 -99 -172 -106 -183 -7 -11 -15 -27 -20 -35 -4
-8 -31 -55 -60 -104 -29 -49 -53 -90 -53 -92 0 -2 -17 -32 -38 -66 -21 -35
-41 -70 -45 -78 -4 -8 -17 -31 -29 -50 -12 -19 -31 -53 -43 -75 -20 -36 -167
-288 -485 -835 -59 -102 -118 -203 -130 -225 -12 -22 -37 -65 -55 -95 -40 -68
-273 -468 -307 -530 -14 -25 -89 -155 -168 -290 -169 -290 -277 -477 -473
-815 -79 -137 -229 -396 -332 -575 -104 -179 -198 -343 -210 -365 -13 -22 -62
-107 -110 -190 -48 -82 -98 -168 -110 -190 -22 -38 -175 -302 -218 -375 -11
-19 -30 -53 -42 -75 -12 -22 -108 -188 -214 -369 -105 -181 -191 -333 -191
-337 0 -5 -4 -9 -10 -9 -5 0 -10 -4 -10 -8 0 -8 -417 -735 -482 -839 l-20 -33
609 0 608 0 152 263 c83 144 215 372 293 507 79 135 151 259 160 275 140 245
214 372 220 380 4 6 19 30 32 55 14 25 112 194 218 375 106 182 204 350 218
375 49 88 205 355 221 380 8 14 21 34 27 45 6 11 116 202 246 425 129 223 270
466 313 540 43 74 109 188 146 254 38 65 69 120 69 122 0 2 15 27 33 56 19 29
37 60 40 68 4 8 17 31 28 50 12 19 109 188 216 375 108 187 208 360 222 385
37 62 43 73 101 175 103 180 245 414 251 415 3 0 16 -39 29 -87 27 -107 136
-515 150 -563 14 -50 44 -161 70 -260 12 -47 31 -116 42 -155 11 -38 22 -78
24 -90 2 -11 19 -75 38 -143 l33 -123 -33 -56 c-19 -30 -34 -57 -34 -59 0 -2
-43 -76 -95 -165 -52 -89 -95 -163 -95 -166 0 -2 -17 -32 -38 -66 -22 -34
-132 -224 -247 -422 -114 -198 -215 -371 -224 -385 -8 -14 -23 -38 -32 -55 -9
-16 -112 -194 -229 -395 -117 -201 -224 -385 -238 -410 -13 -25 -28 -49 -32
-55 -4 -5 -17 -26 -27 -45 -11 -19 -89 -154 -173 -300 -84 -146 -162 -281
-173 -300 -99 -176 -373 -651 -388 -672 -11 -15 -19 -29 -19 -32 0 -3 -22 -43
-49 -88 -91 -155 -241 -419 -241 -423 0 -3 272 -5 604 -5 l604 0 97 167 c54
93 121 209 150 258 29 50 60 104 69 120 9 17 26 46 37 65 29 48 162 277 187
320 35 62 222 385 231 400 21 34 136 235 140 245 2 5 9 17 16 25 7 8 26 40 42
70 17 30 135 235 263 455 129 220 249 428 269 463 19 34 37 62 40 62 3 0 39
-123 80 -273 41 -149 89 -328 108 -397 19 -69 41 -150 49 -180 21 -79 16 -63
69 -255 9 -33 27 -100 40 -150 13 -49 37 -139 53 -200 17 -60 42 -155 57 -210
44 -166 121 -448 175 -650 28 -104 58 -215 66 -245 8 -30 17 -62 20 -72 5 -17
37 -18 551 -18 492 0 545 2 539 16 -3 8 -22 75 -41 147 -35 134 -87 329 -131
492 -13 50 -42 155 -63 235 -21 80 -69 258 -106 395 -60 222 -85 317 -180 670
-26 98 -108 400 -130 480 -7 28 -23 85 -34 128 -43 158 -61 227 -111 412 -28
105 -57 213 -65 240 -7 28 -23 86 -35 130 -12 44 -46 170 -77 280 -30 110 -57
209 -59 221 -2 11 -10 38 -18 60 -14 42 -13 46 45 144 12 19 114 195 226 390
113 195 214 367 224 382 11 15 19 29 19 32 0 4 100 178 129 226 69 111 97 170
82 171 -9 0 -257 2 -551 2 l-535 2 -82 305 c-46 168 -85 314 -88 325 -6 27
-16 64 -63 240 -23 83 -48 175 -56 205 -8 30 -24 91 -36 135 -12 44 -23 87
-25 95 -3 15 -44 165 -69 255 -8 28 -22 80 -31 118 l-18 67 -531 0 -532 0 -95
-162z"/>
</g>
</svg>
